<?xml version="1.0" encoding="iso-8859-1"?>
<!-- Generator: Adobe Illustrator 16.0.0, SVG Export Plug-In . SVG Version: 6.00 Build 0)  -->
<!DOCTYPE svg PUBLIC "-//W3C//DTD SVG 1.1//EN" "http://www.w3.org/Graphics/SVG/1.1/DTD/svg11.dtd">
<svg version="1.1" id="Layer_1" xmlns="http://www.w3.org/2000/svg" xmlns:xlink="http://www.w3.org/1999/xlink" x="0px" y="0px"
	 width="322px" height="88px" viewBox="0 0 322 88" style="enable-background:new 0 0 322 88;" xml:space="preserve">
<g>
	<g>
		<path style="fill:#FFFFFF;" d="M112.092,27.117h9.658c5.534,0,9.762,0.846,12.631,2.69s4.355,4.663,4.355,8.634
			c0,2.768-0.564,4.894-1.486,6.559c-0.947,1.666-2.306,2.921-3.868,3.92c0.718,1.717,2.05,3.177,3.562,4.381
			c1.512,1.23,3.202,2.127,4.637,2.741l0.103,0.231l-3.587,5.072c-2.28,0-4.893-1.332-7.174-3.254
			c-2.279-1.922-4.227-4.458-5.252-6.814c-1.87,0.281-3.715,0.436-5.738,0.436v9.172h-7.84V27.117z M119.932,44.258h0.922
			c7.045,0,10.094-1.589,10.094-5.15c0-1.512-0.563-2.664-1.998-3.407c-1.46-0.743-3.816-1.127-7.43-1.127h-1.588V44.258z"/>
		<path style="fill:#FFFFFF;" d="M166.322,27.117v7.379h-15.346v5.995h15.346v7.02h-15.346v5.995h15.346v7.379h-23.16V27.117
			H166.322z"/>
		<path style="fill:#FFFFFF;" d="M194.398,60.885l-1.947-1.18c-1.666,0.846-3.613,1.691-6.662,1.691
			c-4.842,0-9.172-2.023-12.246-5.227c-3.1-3.202-4.971-7.66-4.971-12.477c0-4.432,1.59-8.711,4.766-11.887
			c3.152-3.152,7.891-5.201,14.143-5.201c3.305,0,6.455,0.563,8.787,1.178v7.303l-0.18,0.102c-1.203-0.332-2.715-0.666-4.252-0.896
			c-1.537-0.205-3.125-0.358-4.484-0.358c-3.766,0-6.584,1.28-8.453,3.151c-1.871,1.87-2.818,4.355-2.818,6.789
			c0,2.588,0.922,5.149,2.664,7.07c1.717,1.922,4.227,3.178,7.404,3.178c2.535,0,4.432-0.77,5.789-1.589v-4.894h-6.303v-6.865
			h13.477v20.111H194.398z"/>
		<path style="fill:#FFFFFF;" d="M202.641,27.117h9.658c5.535,0,9.762,0.846,12.631,2.69s4.355,4.663,4.355,8.634
			c0,2.768-0.563,4.894-1.486,6.559c-0.947,1.666-2.305,2.921-3.867,3.92c0.717,1.717,2.049,3.177,3.561,4.381
			c1.512,1.23,3.203,2.127,4.637,2.741l0.104,0.231l-3.588,5.072c-2.279,0-4.893-1.332-7.174-3.254
			c-2.279-1.922-4.227-4.458-5.252-6.814c-1.869,0.281-3.715,0.436-5.738,0.436v9.172h-7.84V27.117z M210.48,44.258h0.922
			c7.047,0,10.096-1.589,10.096-5.15c0-1.512-0.564-2.664-2-3.407c-1.459-0.743-3.816-1.127-7.43-1.127h-1.588V44.258z"/>
		<path style="fill:#FFFFFF;" d="M232.559,43.976c0-4.919,1.818-9.249,4.92-12.374c3.074-3.126,7.455-4.996,12.604-4.996
			c5.15,0,9.48,1.87,12.477,4.996c2.998,3.125,4.715,7.455,4.715,12.374s-1.793,9.249-4.867,12.374
			c-3.076,3.125-7.457,5.047-12.605,5.047c-5.15,0-9.453-1.922-12.477-5.047S232.559,48.895,232.559,43.976z M240.398,43.719
			c0,2.896,0.871,5.482,2.535,7.328c1.641,1.869,4.049,2.997,7.123,2.997c2.973,0,5.355-1.05,6.943-2.818
			c1.588-1.742,2.434-4.202,2.434-6.994c0-2.946-0.82-5.482-2.434-7.327c-1.615-1.844-3.971-2.946-7.02-2.946
			c-2.998,0-5.406,1.051-7.047,2.792C241.295,38.492,240.398,40.952,240.398,43.719z"/>
		<path style="fill:#FFFFFF;" d="M285.559,60.885h-8.018l-9.686-33.768h8.045l5.637,19.754l5.662-19.754h8.018l5.662,19.754
			l5.637-19.754h8.045l-9.684,33.768h-8.02l-5.662-19.728L285.559,60.885z"/>
	</g>
	<g>
		<g>
			<g>
				<circle style="fill:#FFFFFF;" cx="52.948" cy="72.108" r="6.408"/>
				<path style="fill:#FFFFFF;" d="M57.03,71.152c0,1.707-1.729,2.995-3.918,2.871c-2.178-0.122-3.988-1.663-3.991-3.437
					c-0.058-0.845,0.896-15.518,4.838-29.138c3.462-13.754,9.923-26.457,9.878-26.418c0.022-0.045-3.868,13.386-5.969,27.157
					C55.684,56.529,57,70.34,57.03,71.152"/>
				<circle style="fill:#FFFFFF;" cx="74.219" cy="65.183" r="6.409"/>
				<path style="fill:#FFFFFF;" d="M78.191,64.448c0.001,1.707-1.729,2.995-3.918,2.871c-2.179-0.123-3.989-1.663-3.993-3.437
					c-0.057-0.845,0.896-15.519,4.842-29.137C78.585,20.991,85.045,8.289,85,8.326c0.021-0.043-3.87,13.387-5.972,27.158
					C76.845,49.825,78.162,63.635,78.191,64.448"/>
				<circle style="fill:#FFFFFF;" cx="32.613" cy="63.014" r="6.408"/>
				<path style="fill:#FFFFFF;" d="M36.585,62.279c0,1.706-1.729,2.995-3.918,2.871c-2.178-0.124-3.989-1.664-3.993-3.438
					c-0.057-0.844,0.896-15.517,4.84-29.137c3.462-13.755,9.923-26.457,9.878-26.42c0.022-0.043-3.868,13.387-5.97,27.158
					C35.238,47.655,36.554,61.465,36.585,62.279"/>
			</g>
		</g>
		<g>
			<polyline style="fill:none;stroke:#FFFFFF;stroke-width:1.1966;stroke-linecap:round;stroke-linejoin:round;" points="
				6.264,47.312 27.338,47.312 26.301,55.215 			"/>
			<path style="fill:none;stroke:#FFFFFF;stroke-width:1.1966;stroke-linecap:round;stroke-linejoin:round;" d="M38.91,55.429
				l0.234-8.117h10.304c0,0-2.442,14.946-2.292,16.795"/>
			<path style="fill:none;stroke:#FFFFFF;stroke-width:1.1966;stroke-linecap:round;stroke-linejoin:round;" d="M59.356,64.393
				c-0.472-2.042,1.156-17.008,1.156-17.008h8.678l-1.256,10.206"/>
			<polyline style="fill:none;stroke:#FFFFFF;stroke-width:1.1966;stroke-linecap:round;stroke-linejoin:round;" points="
				80.652,57.517 80.77,47.385 100.617,47.385 			"/>
			<g>
				<path style="fill:none;stroke:#FFFFFF;stroke-width:1.1966;stroke-linecap:round;stroke-linejoin:round;" d="M26.266,55.391
					h-0.037c-2.494,1.792-3.549,4.332-3.549,7.635c0,5.451,4.419,9.872,9.871,9.872c5.452,0,9.873-4.421,9.873-9.872
					c0-3.262-1.111-5.808-3.549-7.604l0.073,0.063"/>
			</g>
			<g>
				<path style="fill:none;stroke:#FFFFFF;stroke-width:1.1966;stroke-linecap:round;stroke-linejoin:round;" d="M47.062,64.235
					c-2.423,1.8-3.827,4.488-3.827,7.737c0,5.452,4.421,9.872,9.872,9.872c5.454,0,9.873-4.42,9.873-9.872
					c0-3.41-1.031-5.853-3.662-7.626"/>
			</g>
			<g>
				<path style="fill:none;stroke:#FFFFFF;stroke-width:1.1966;stroke-linecap:round;stroke-linejoin:round;" d="M67.896,57.673
					c-2.515,1.789-3.439,4.175-3.439,7.498c0,5.452,4.421,9.87,9.874,9.87c5.451,0,9.87-4.418,9.87-9.87
					c0-3.311-1.014-5.651-3.513-7.442"/>
			</g>
		</g>
	</g>
</g>
</svg>
