<?xml version="1.0" encoding="iso-8859-1"?>
<!-- Generator: Adobe Illustrator 16.0.0, SVG Export Plug-In . SVG Version: 6.00 Build 0)  -->
<!DOCTYPE svg PUBLIC "-//W3C//DTD SVG 1.1//EN" "http://www.w3.org/Graphics/SVG/1.1/DTD/svg11.dtd">
<svg version="1.1" id="Layer_1" xmlns="http://www.w3.org/2000/svg" xmlns:xlink="http://www.w3.org/1999/xlink" x="0px" y="0px"
	 width="219px" height="162.997px" viewBox="0 0 219 162.997" style="enable-background:new 0 0 219 162.997;" xml:space="preserve"
	>
<g>
	<g>
		<linearGradient id="SVGID_1_" gradientUnits="userSpaceOnUse" x1="23.3535" y1="131.7559" x2="17.4286" y2="94.3472">
			<stop  offset="0" style="stop-color:#0066B3"/>
			<stop  offset="0.1256" style="stop-color:#0073BC"/>
			<stop  offset="0.4203" style="stop-color:#0091D2"/>
			<stop  offset="0.6748" style="stop-color:#00A9E3"/>
			<stop  offset="0.8764" style="stop-color:#00B8EE"/>
			<stop  offset="1" style="stop-color:#00C0F3"/>
		</linearGradient>
		<path style="fill:url(#SVGID_1_);" d="M7.828,95.867h9.658c5.534,0,9.762,0.846,12.631,2.689c2.869,1.846,4.355,4.664,4.355,8.635
			c0,2.768-0.564,4.893-1.486,6.559c-0.947,1.666-2.306,2.92-3.868,3.92c0.718,1.717,2.05,3.176,3.562,4.381
			c1.512,1.23,3.202,2.127,4.637,2.74l0.103,0.232l-3.587,5.072c-2.28,0-4.893-1.332-7.174-3.254
			c-2.279-1.922-4.227-4.459-5.252-6.814c-1.87,0.281-3.715,0.436-5.738,0.436v9.172h-7.84V95.867z M15.668,113.008h0.922
			c7.045,0,10.094-1.59,10.094-5.15c0-1.512-0.563-2.664-1.998-3.408c-1.46-0.742-3.816-1.127-7.43-1.127h-1.588V113.008z"/>
		<linearGradient id="SVGID_2_" gradientUnits="userSpaceOnUse" x1="53.3701" y1="131.0107" x2="47.586" y2="94.4913">
			<stop  offset="0" style="stop-color:#0066B3"/>
			<stop  offset="0.1256" style="stop-color:#0073BC"/>
			<stop  offset="0.4203" style="stop-color:#0091D2"/>
			<stop  offset="0.6748" style="stop-color:#00A9E3"/>
			<stop  offset="0.8764" style="stop-color:#00B8EE"/>
			<stop  offset="1" style="stop-color:#00C0F3"/>
		</linearGradient>
		<path style="fill:url(#SVGID_2_);" d="M62.059,95.867v7.379H46.713v5.994h15.346v7.02H46.713v5.996h15.346v7.379h-23.16V95.867
			H62.059z"/>
		<linearGradient id="SVGID_3_" gradientUnits="userSpaceOnUse" x1="82.7222" y1="131.5557" x2="77.0899" y2="95.995">
			<stop  offset="0" style="stop-color:#0066B3"/>
			<stop  offset="0.1256" style="stop-color:#0073BC"/>
			<stop  offset="0.4203" style="stop-color:#0091D2"/>
			<stop  offset="0.6748" style="stop-color:#00A9E3"/>
			<stop  offset="0.8764" style="stop-color:#00B8EE"/>
			<stop  offset="1" style="stop-color:#00C0F3"/>
		</linearGradient>
		<path style="fill:url(#SVGID_3_);" d="M90.135,129.635l-1.947-1.18c-1.666,0.846-3.613,1.691-6.662,1.691
			c-4.842,0-9.172-2.023-12.246-5.227c-3.1-3.203-4.971-7.66-4.971-12.477c0-4.432,1.59-8.711,4.766-11.887
			c3.152-3.152,7.891-5.201,14.143-5.201c3.305,0,6.455,0.563,8.787,1.178v7.303l-0.18,0.102c-1.203-0.332-2.715-0.666-4.252-0.896
			c-1.537-0.205-3.125-0.359-4.484-0.359c-3.766,0-6.584,1.281-8.453,3.152c-1.871,1.869-2.818,4.355-2.818,6.789
			c0,2.588,0.922,5.148,2.664,7.07c1.717,1.922,4.227,3.178,7.404,3.178c2.535,0,4.432-0.77,5.789-1.59v-4.893h-6.303v-6.865h13.477
			v20.111H90.135z"/>
		<linearGradient id="SVGID_4_" gradientUnits="userSpaceOnUse" x1="113.9023" y1="131.7559" x2="107.9774" y2="94.3472">
			<stop  offset="0" style="stop-color:#0066B3"/>
			<stop  offset="0.1256" style="stop-color:#0073BC"/>
			<stop  offset="0.4203" style="stop-color:#0091D2"/>
			<stop  offset="0.6748" style="stop-color:#00A9E3"/>
			<stop  offset="0.8764" style="stop-color:#00B8EE"/>
			<stop  offset="1" style="stop-color:#00C0F3"/>
		</linearGradient>
		<path style="fill:url(#SVGID_4_);" d="M98.377,95.867h9.658c5.535,0,9.762,0.846,12.631,2.689
			c2.869,1.846,4.355,4.664,4.355,8.635c0,2.768-0.563,4.893-1.486,6.559c-0.947,1.666-2.305,2.92-3.867,3.92
			c0.717,1.717,2.049,3.176,3.561,4.381c1.512,1.23,3.203,2.127,4.637,2.74l0.104,0.232l-3.588,5.072
			c-2.279,0-4.893-1.332-7.174-3.254c-2.279-1.922-4.227-4.459-5.252-6.814c-1.869,0.281-3.715,0.436-5.738,0.436v9.172h-7.84
			V95.867z M106.217,113.008h0.922c7.047,0,10.096-1.59,10.096-5.15c0-1.512-0.564-2.664-2-3.408
			c-1.459-0.742-3.816-1.127-7.43-1.127h-1.588V113.008z"/>
		<linearGradient id="SVGID_5_" gradientUnits="userSpaceOnUse" x1="148.3818" y1="129.9453" x2="142.9353" y2="95.5576">
			<stop  offset="0" style="stop-color:#0066B3"/>
			<stop  offset="0.1256" style="stop-color:#0073BC"/>
			<stop  offset="0.4203" style="stop-color:#0091D2"/>
			<stop  offset="0.6748" style="stop-color:#00A9E3"/>
			<stop  offset="0.8764" style="stop-color:#00B8EE"/>
			<stop  offset="1" style="stop-color:#00C0F3"/>
		</linearGradient>
		<path style="fill:url(#SVGID_5_);" d="M128.295,112.725c0-4.918,1.818-9.248,4.92-12.373c3.074-3.127,7.455-4.996,12.604-4.996
			c5.15,0,9.48,1.869,12.477,4.996c2.998,3.125,4.715,7.455,4.715,12.373c0,4.92-1.793,9.25-4.867,12.375
			c-3.076,3.125-7.457,5.047-12.605,5.047c-5.15,0-9.453-1.922-12.477-5.047S128.295,117.645,128.295,112.725z M136.135,112.469
			c0,2.895,0.871,5.482,2.535,7.328c1.641,1.869,4.049,2.996,7.123,2.996c2.973,0,5.355-1.049,6.943-2.818
			c1.588-1.742,2.434-4.201,2.434-6.994c0-2.945-0.82-5.482-2.434-7.326c-1.615-1.844-3.971-2.947-7.02-2.947
			c-2.998,0-5.406,1.051-7.047,2.793C137.031,107.242,136.135,109.701,136.135,112.469z"/>
		<linearGradient id="SVGID_6_" gradientUnits="userSpaceOnUse" x1="192.4961" y1="130.9199" x2="186.3727" y2="92.2583">
			<stop  offset="0" style="stop-color:#0066B3"/>
			<stop  offset="0.1256" style="stop-color:#0073BC"/>
			<stop  offset="0.4203" style="stop-color:#0091D2"/>
			<stop  offset="0.6748" style="stop-color:#00A9E3"/>
			<stop  offset="0.8764" style="stop-color:#00B8EE"/>
			<stop  offset="1" style="stop-color:#00C0F3"/>
		</linearGradient>
		<path style="fill:url(#SVGID_6_);" d="M181.295,129.635h-8.018l-9.686-33.768h8.045l5.637,19.754l5.662-19.754h8.018l5.662,19.754
			l5.637-19.754h8.045l-9.684,33.768h-8.02l-5.662-19.729L181.295,129.635z"/>
	</g>
	<g>
		<g>
			<circle style="fill:#00C0F3;" cx="106.964" cy="74.332" r="7.222"/>
			<path style="fill:#00C0F3;" d="M111.565,73.254c0,1.924-1.949,3.375-4.416,3.236c-2.455-0.139-4.495-1.875-4.499-3.873
				c-0.064-0.953,1.01-17.49,5.454-32.84c3.902-15.502,11.184-29.818,11.133-29.775c0.025-0.051-4.359,15.086-6.729,30.607
				C110.048,56.773,111.53,72.338,111.565,73.254"/>
			<circle style="fill:#00C0F3;" cx="130.938" cy="66.525" r="7.223"/>
			<path style="fill:#00C0F3;" d="M135.415,65.697c0.002,1.924-1.949,3.377-4.416,3.236c-2.455-0.139-4.496-1.875-4.5-3.873
				c-0.064-0.951,1.01-17.49,5.457-32.84c3.902-15.502,11.184-29.818,11.133-29.775c0.023-0.049-4.361,15.088-6.73,30.607
				C133.897,49.217,135.382,64.781,135.415,65.697"/>
			<circle style="fill:#00C0F3;" cx="84.045" cy="64.08" r="7.223"/>
			<path style="fill:#00C0F3;" d="M88.521,63.254c0,1.922-1.949,3.375-4.416,3.234c-2.455-0.139-4.496-1.873-4.5-3.873
				c-0.064-0.951,1.01-17.488,5.455-32.84C88.963,14.273,96.244-0.043,96.193,0c0.025-0.049-4.359,15.088-6.729,30.609
				C87.004,46.771,88.486,62.336,88.521,63.254"/>
		</g>
	</g>
	<g>
		<polyline style="fill:none;stroke:#0066B3;stroke-width:1.3486;stroke-linecap:round;stroke-linejoin:round;" points="
			54.348,46.385 78.1,46.385 76.932,55.291 		"/>
		<path style="fill:none;stroke:#0066B3;stroke-width:1.3486;stroke-linecap:round;stroke-linejoin:round;" d="M91.143,55.531
			l0.264-9.146h11.613c0,0-2.752,16.844-2.584,18.928"/>
		<path style="fill:none;stroke:#0066B3;stroke-width:1.3486;stroke-linecap:round;stroke-linejoin:round;" d="M114.187,65.637
			c-0.531-2.303,1.303-19.17,1.303-19.17h9.781l-1.416,11.502"/>
		<polyline style="fill:none;stroke:#0066B3;stroke-width:1.3486;stroke-linecap:round;stroke-linejoin:round;" points="
			138.188,57.885 138.321,46.467 160.69,46.467 		"/>
		<g>
			<path style="fill:none;stroke:#0066B3;stroke-width:1.3486;stroke-linecap:round;stroke-linejoin:round;" d="M76.891,55.49H76.85
				c-2.811,2.018-4,4.881-4,8.604c0,6.145,4.98,11.127,11.125,11.127s11.127-4.982,11.127-11.127c0-3.676-1.252-6.545-4-8.57
				l0.082,0.07"/>
		</g>
		<g>
			<path style="fill:none;stroke:#0066B3;stroke-width:1.3486;stroke-linecap:round;stroke-linejoin:round;" d="M100.33,65.459
				c-2.73,2.027-4.313,5.057-4.313,8.721c0,6.145,4.982,11.125,11.126,11.125c6.146,0,11.127-4.98,11.127-11.125
				c0-3.846-1.162-6.598-4.127-8.596"/>
		</g>
		<g>
			<path style="fill:none;stroke:#0066B3;stroke-width:1.3486;stroke-linecap:round;stroke-linejoin:round;" d="M123.812,58.063
				c-2.834,2.016-3.875,4.705-3.875,8.449c0,6.145,4.982,11.125,11.127,11.125s11.125-4.98,11.125-11.125
				c0-3.73-1.143-6.369-3.959-8.387"/>
		</g>
	</g>
	<g>
		<path style="fill:#0066B3;" d="M210.054,151.829c0,2.385-1.952,4.337-4.337,4.337H12.058c-2.385,0-4.337-1.952-4.337-4.337v-8.66
			c0-2.385,1.952-4.337,4.337-4.337h193.659c2.385,0,4.337,1.952,4.337,4.337V151.829z"/>
	</g>
	<g>
		<path style="fill:#FFFFFF;" d="M13.189,144.505c0.422-0.07,0.975-0.131,1.679-0.131c0.865,0,1.498,0.201,1.9,0.563
			c0.372,0.321,0.594,0.814,0.594,1.418c0,0.613-0.182,1.097-0.523,1.448c-0.462,0.492-1.217,0.744-2.071,0.744
			c-0.262,0-0.503-0.01-0.704-0.061v2.715h-0.874V144.505z M14.063,147.773c0.191,0.05,0.433,0.07,0.725,0.07
			c1.056,0,1.699-0.513,1.699-1.448c0-0.895-0.634-1.327-1.599-1.327c-0.383,0-0.674,0.03-0.825,0.07V147.773z"/>
		<path style="fill:#FFFFFF;" d="M18.536,144.515c0.442-0.09,1.075-0.141,1.679-0.141c0.936,0,1.539,0.172,1.961,0.554
			c0.342,0.302,0.533,0.765,0.533,1.287c0,0.895-0.563,1.487-1.277,1.729v0.029c0.522,0.182,0.835,0.664,0.995,1.368
			c0.222,0.945,0.383,1.599,0.523,1.86h-0.905c-0.11-0.191-0.262-0.774-0.452-1.619c-0.201-0.936-0.563-1.287-1.357-1.316H19.41
			v2.936h-0.874V144.515z M19.41,147.603h0.896c0.935,0,1.528-0.514,1.528-1.287c0-0.875-0.634-1.258-1.559-1.268
			c-0.423,0-0.724,0.041-0.865,0.08V147.603z"/>
		<path style="fill:#FFFFFF;" d="M29.764,147.743c0,2.333-1.418,3.57-3.147,3.57c-1.79,0-3.047-1.389-3.047-3.439
			c0-2.152,1.337-3.561,3.147-3.561C28.567,144.313,29.764,145.731,29.764,147.743z M24.504,147.854
			c0,1.448,0.784,2.745,2.162,2.745c1.388,0,2.172-1.277,2.172-2.815c0-1.347-0.704-2.755-2.162-2.755
			C25.229,145.028,24.504,146.365,24.504,147.854z"/>
		<path style="fill:#FFFFFF;" d="M31.932,145.169h-2.062v-0.744h5.018v0.744h-2.071v6.033h-0.885V145.169z"/>
		<path style="fill:#FFFFFF;" d="M39.148,148.024h-2.635v2.443h2.937v0.734h-3.811v-6.777h3.66v0.734h-2.786v2.142h2.635V148.024z"
			/>
		<path style="fill:#FFFFFF;" d="M45.319,150.981c-0.321,0.16-0.965,0.321-1.789,0.321c-1.911,0-3.349-1.206-3.349-3.429
			c0-2.122,1.438-3.561,3.539-3.561c0.845,0,1.378,0.182,1.609,0.303l-0.212,0.713c-0.331-0.16-0.804-0.281-1.367-0.281
			c-1.589,0-2.645,1.016-2.645,2.796c0,1.659,0.955,2.726,2.604,2.726c0.533,0,1.076-0.111,1.428-0.282L45.319,150.981z"/>
		<path style="fill:#FFFFFF;" d="M50.936,150.981c-0.321,0.16-0.965,0.321-1.789,0.321c-1.911,0-3.349-1.206-3.349-3.429
			c0-2.122,1.438-3.561,3.539-3.561c0.845,0,1.378,0.182,1.609,0.303l-0.212,0.713c-0.331-0.16-0.804-0.281-1.367-0.281
			c-1.589,0-2.645,1.016-2.645,2.796c0,1.659,0.955,2.726,2.604,2.726c0.533,0,1.076-0.111,1.428-0.282L50.936,150.981z"/>
		<path style="fill:#FFFFFF;" d="M52.903,144.425v6.777h-0.874v-6.777H52.903z"/>
		<path style="fill:#FFFFFF;" d="M60.223,147.743c0,2.333-1.418,3.57-3.147,3.57c-1.79,0-3.047-1.389-3.047-3.439
			c0-2.152,1.337-3.561,3.147-3.561C59.026,144.313,60.223,145.731,60.223,147.743z M54.963,147.854
			c0,1.448,0.784,2.745,2.162,2.745c1.388,0,2.172-1.277,2.172-2.815c0-1.347-0.704-2.755-2.162-2.755
			C55.688,145.028,54.963,146.365,54.963,147.854z M58.593,142.866l-1.276,1.166h-0.725l0.936-1.166H58.593z"/>
		<path style="fill:#FFFFFF;" d="M61.355,151.202v-6.777h0.955l2.172,3.429c0.503,0.794,0.895,1.509,1.217,2.202l0.02-0.01
			c-0.08-0.905-0.101-1.729-0.101-2.785v-2.836h0.825v6.777h-0.885l-2.152-3.439c-0.473-0.754-0.925-1.527-1.267-2.262l-0.03,0.01
			c0.05,0.854,0.07,1.669,0.07,2.795v2.896H61.355z"/>
		<path style="fill:#FFFFFF;" d="M74.833,150.981c-0.321,0.16-0.965,0.321-1.789,0.321c-1.911,0-3.349-1.206-3.349-3.429
			c0-2.122,1.438-3.561,3.539-3.561c0.845,0,1.378,0.182,1.609,0.303l-0.212,0.713c-0.331-0.16-0.804-0.281-1.367-0.281
			c-1.589,0-2.645,1.016-2.645,2.796c0,1.659,0.955,2.726,2.604,2.726c0.533,0,1.076-0.111,1.428-0.282L74.833,150.981z"/>
		<path style="fill:#FFFFFF;" d="M81.507,147.743c0,2.333-1.418,3.57-3.147,3.57c-1.79,0-3.047-1.389-3.047-3.439
			c0-2.152,1.337-3.561,3.147-3.561C80.31,144.313,81.507,145.731,81.507,147.743z M76.248,147.854c0,1.448,0.784,2.745,2.162,2.745
			c1.388,0,2.172-1.277,2.172-2.815c0-1.347-0.704-2.755-2.162-2.755C76.972,145.028,76.248,146.365,76.248,147.854z"/>
		<path style="fill:#FFFFFF;" d="M82.639,151.202v-6.777h0.955l2.172,3.429c0.503,0.794,0.895,1.509,1.217,2.202l0.02-0.01
			c-0.08-0.905-0.101-1.729-0.101-2.785v-2.836h0.825v6.777h-0.885l-2.152-3.439c-0.473-0.754-0.925-1.527-1.267-2.262l-0.03,0.01
			c0.05,0.854,0.07,1.669,0.07,2.795v2.896H82.639z"/>
		<path style="fill:#FFFFFF;" d="M90.539,145.169h-2.062v-0.744h5.018v0.744h-2.071v6.033h-0.885V145.169z"/>
		<path style="fill:#FFFFFF;" d="M94.247,144.515c0.442-0.09,1.075-0.141,1.679-0.141c0.936,0,1.539,0.172,1.961,0.554
			c0.342,0.302,0.533,0.765,0.533,1.287c0,0.895-0.563,1.487-1.277,1.729v0.029c0.522,0.182,0.835,0.664,0.995,1.368
			c0.222,0.945,0.383,1.599,0.523,1.86h-0.905c-0.11-0.191-0.262-0.774-0.452-1.619c-0.201-0.936-0.563-1.287-1.357-1.316h-0.825
			v2.936h-0.874V144.515z M95.121,147.603h0.896c0.935,0,1.528-0.514,1.528-1.287c0-0.875-0.634-1.258-1.559-1.268
			c-0.423,0-0.724,0.041-0.865,0.08V147.603z"/>
		<path style="fill:#FFFFFF;" d="M100.798,149.07l-0.704,2.132h-0.905l2.303-6.777h1.057l2.313,6.777h-0.936l-0.724-2.132H100.798z
			 M103.021,148.387l-0.664-1.95c-0.151-0.443-0.251-0.846-0.352-1.237h-0.021c-0.101,0.401-0.211,0.814-0.342,1.227l-0.664,1.961
			H103.021z"/>
		<path style="fill:#FFFFFF;" d="M107.984,144.425h0.874v6.043h2.896v0.734h-3.771V144.425z"/>
		<path style="fill:#FFFFFF;" d="M113.822,149.07l-0.705,2.132h-0.905l2.303-6.777h1.057l2.313,6.777h-0.936l-0.725-2.132H113.822z
			 M116.045,148.387l-0.664-1.95c-0.152-0.443-0.252-0.846-0.352-1.237h-0.021c-0.1,0.401-0.211,0.814-0.342,1.227l-0.664,1.961
			H116.045z"/>
		<path style="fill:#FFFFFF;" d="M125.742,150.981c-0.32,0.16-0.965,0.321-1.789,0.321c-1.91,0-3.348-1.206-3.348-3.429
			c0-2.122,1.438-3.561,3.539-3.561c0.844,0,1.377,0.182,1.609,0.303l-0.213,0.713c-0.33-0.16-0.803-0.281-1.367-0.281
			c-1.588,0-2.645,1.016-2.645,2.796c0,1.659,0.955,2.726,2.605,2.726c0.533,0,1.076-0.111,1.428-0.282L125.742,150.981z"/>
		<path style="fill:#FFFFFF;" d="M127.971,149.07l-0.703,2.132h-0.906l2.303-6.777h1.057l2.313,6.777h-0.936l-0.723-2.132H127.971z
			 M130.193,148.387l-0.664-1.95c-0.15-0.443-0.25-0.846-0.352-1.237h-0.02c-0.102,0.401-0.211,0.814-0.342,1.227l-0.664,1.961
			H130.193z"/>
		<path style="fill:#FFFFFF;" d="M134.936,142.886l-1.287,1.177h-0.713l0.924-1.177H134.936z M133.9,144.425v6.777h-0.875v-6.777
			H133.9z"/>
		<path style="fill:#FFFFFF;" d="M135.428,144.515c0.533-0.08,1.166-0.141,1.859-0.141c1.258,0,2.152,0.292,2.746,0.846
			c0.604,0.553,0.955,1.337,0.955,2.433c0,1.106-0.342,2.011-0.975,2.635c-0.635,0.634-1.68,0.976-2.998,0.976
			c-0.623,0-1.145-0.03-1.588-0.08V144.515z M136.303,150.509c0.221,0.039,0.543,0.05,0.885,0.05c1.871,0,2.887-1.046,2.887-2.876
			c0.01-1.599-0.896-2.614-2.746-2.614c-0.453,0-0.795,0.04-1.025,0.091V150.509z"/>
		<path style="fill:#FFFFFF;" d="M143.076,149.07l-0.705,2.132h-0.904l2.303-6.777h1.057l2.313,6.777h-0.936l-0.725-2.132H143.076z
			 M145.299,148.387l-0.664-1.95c-0.152-0.443-0.252-0.846-0.352-1.237h-0.021c-0.1,0.401-0.211,0.814-0.342,1.227l-0.664,1.961
			H145.299z"/>
		<path style="fill:#FFFFFF;" d="M150.26,144.515c0.533-0.08,1.166-0.141,1.859-0.141c1.258,0,2.152,0.292,2.746,0.846
			c0.604,0.553,0.955,1.337,0.955,2.433c0,1.106-0.342,2.011-0.975,2.635c-0.635,0.634-1.68,0.976-2.998,0.976
			c-0.623,0-1.145-0.03-1.588-0.08V144.515z M151.135,150.509c0.221,0.039,0.543,0.05,0.885,0.05c1.871,0,2.887-1.046,2.887-2.876
			c0.01-1.599-0.896-2.614-2.746-2.614c-0.453,0-0.795,0.04-1.025,0.091V150.509z"/>
		<path style="fill:#FFFFFF;" d="M160.463,148.024h-2.635v2.443h2.936v0.734h-3.811v-6.777h3.66v0.734h-2.785v2.142h2.635V148.024z"
			/>
		<path style="fill:#FFFFFF;" d="M161.896,144.425h0.875v6.043h2.896v0.734h-3.771V144.425z"/>
		<path style="fill:#FFFFFF;" d="M173.506,150.981c-0.32,0.16-0.965,0.321-1.789,0.321c-1.91,0-3.348-1.206-3.348-3.429
			c0-2.122,1.438-3.561,3.539-3.561c0.844,0,1.377,0.182,1.609,0.303l-0.213,0.713c-0.33-0.16-0.803-0.281-1.367-0.281
			c-1.588,0-2.645,1.016-2.645,2.796c0,1.659,0.955,2.726,2.605,2.726c0.533,0,1.076-0.111,1.428-0.282L173.506,150.981z"/>
		<path style="fill:#FFFFFF;" d="M175.734,149.07l-0.703,2.132h-0.906l2.303-6.777h1.057l2.313,6.777h-0.936l-0.723-2.132H175.734z
			 M177.957,148.387l-0.664-1.95c-0.15-0.443-0.25-0.846-0.352-1.237h-0.02c-0.102,0.401-0.211,0.814-0.342,1.227l-0.664,1.961
			H177.957z"/>
		<path style="fill:#FFFFFF;" d="M180.789,144.515c0.383-0.08,0.986-0.141,1.6-0.141c0.875,0,1.438,0.151,1.859,0.493
			c0.352,0.261,0.563,0.663,0.563,1.196c0,0.654-0.432,1.227-1.146,1.488v0.021c0.645,0.161,1.398,0.694,1.398,1.699
			c0,0.583-0.23,1.026-0.572,1.357c-0.473,0.433-1.238,0.634-2.344,0.634c-0.604,0-1.066-0.041-1.357-0.08V144.515z M181.664,147.29
			h0.795c0.924,0,1.467-0.482,1.467-1.136c0-0.794-0.604-1.106-1.488-1.106c-0.402,0-0.633,0.03-0.773,0.061V147.29z
			 M181.664,150.538c0.17,0.031,0.422,0.041,0.734,0.041c0.904,0,1.738-0.332,1.738-1.318c0-0.924-0.793-1.307-1.748-1.307h-0.725
			V150.538z"/>
		<path style="fill:#FFFFFF;" d="M189.746,148.024h-2.635v2.443h2.936v0.734h-3.811v-6.777h3.66v0.734h-2.785v2.142h2.635V148.024z"
			/>
		<path style="fill:#FFFFFF;" d="M191.182,144.425h0.873v6.043h2.896v0.734h-3.77V144.425z"/>
		<path style="fill:#FFFFFF;" d="M195.924,144.425h0.875v6.043h2.896v0.734h-3.771V144.425z"/>
		<path style="fill:#FFFFFF;" d="M206.066,147.743c0,2.333-1.418,3.57-3.146,3.57c-1.791,0-3.047-1.389-3.047-3.439
			c0-2.152,1.336-3.561,3.146-3.561C204.869,144.313,206.066,145.731,206.066,147.743z M200.807,147.854
			c0,1.448,0.785,2.745,2.162,2.745c1.389,0,2.172-1.277,2.172-2.815c0-1.347-0.703-2.755-2.162-2.755
			C201.531,145.028,200.807,146.365,200.807,147.854z"/>
	</g>
</g>
</svg>
