<?xml version="1.0" encoding="iso-8859-1"?>
<!-- Generator: Adobe Illustrator 16.0.0, SVG Export Plug-In . SVG Version: 6.00 Build 0)  -->
<!DOCTYPE svg PUBLIC "-//W3C//DTD SVG 1.1//EN" "http://www.w3.org/Graphics/SVG/1.1/DTD/svg11.dtd">
<svg version="1.1" id="Layer_1" xmlns="http://www.w3.org/2000/svg" xmlns:xlink="http://www.w3.org/1999/xlink" x="0px" y="0px"
	 width="168px" height="82px" viewBox="0 0 168 82" style="enable-background:new 0 0 168 82;" xml:space="preserve">
<g>
	<g>
		<g>
			<g>
				<g>
					<path style="fill:#AB254D;" d="M44.061,10.661h11.988c7.129,0,9.434,3.897,9.434,7.753c0,3.229-2.35,5.955-5.828,6.375
						l0.082,0.082c0.799-0.125,6.752,1.301,6.752,7.337c0,5.448-4.193,8.385-10.439,8.385H44.061V10.661z M45.904,24.24h10.145
						c4.992,0,7.59-2.511,7.59-6.161c0-4.317-3.605-5.826-7.59-5.826H45.904V24.24z M45.904,38.999h10.145
						c5.283,0,8.596-2.349,8.596-6.791c0-5.112-4.656-6.372-8.596-6.372H45.904V38.999z"/>
					<path style="fill:#AB254D;" d="M87.244,40.593H85.65V35.98h-0.084c-1.092,3.228-4.359,5.116-7.713,5.116
						c-7.586,0-7.672-6.079-7.672-8.723v-13.33h1.592v13.625c0,2.222,0.252,7.043,6.121,7.043c4.82,0,7.756-3.731,7.756-9.014
						V19.044h1.594V40.593z"/>
					<path style="fill:#AB254D;" d="M92.322,10.661h1.592v12.952h0.082c1.219-3.353,4.697-5.073,8.18-5.073
						c6.33,0,9.346,4.78,9.346,10.775c0,10.27-6.373,11.781-9.346,11.781c-5.66,0-7.844-4.194-8.18-5.327h-0.082v4.823h-1.592
						V10.661z M109.93,29.315c0-4.78-2.602-9.391-7.754-9.391c-5.621,0-8.221,3.983-8.221,9.391c0,5.282,2.348,10.396,8.221,10.396
						C107.834,39.712,109.93,34.262,109.93,29.315z"/>
					<path style="fill:#AB254D;" d="M115.637,10.661h1.592v12.952h0.084c1.217-3.353,4.691-5.073,8.172-5.073
						c6.334,0,9.348,4.78,9.348,10.775c0,10.27-6.371,11.781-9.348,11.781c-5.658,0-7.84-4.194-8.172-5.327h-0.084v4.823h-1.592
						V10.661z M133.242,29.315c0-4.78-2.602-9.391-7.758-9.391c-5.615,0-8.211,3.983-8.211,9.391c0,5.282,2.342,10.396,8.211,10.396
						C131.146,39.712,133.242,34.262,133.242,29.315z"/>
					<path style="fill:#AB254D;" d="M135.973,19.044h1.885l8.006,19.661l7.381-19.661h1.801l-9.221,23.854
						c-0.885,2.096-1.592,3.729-2.518,4.441c-1.129,0.883-2.6,0.966-5.029,0.966v-1.384c2.266,0,3.396-0.295,4.486-1.383
						c0.629-0.629,1.215-2.223,2.221-5.073L135.973,19.044z"/>
				</g>
			</g>
		</g>
		<g>
			<path style="fill:#AB254D;" d="M92.85,43.469h5.57c1.484,0,3.813,0.531,3.813,3.664c0,2.292-1.504,3.592-4.105,3.592h-4.471
				v5.827H92.85V43.469z M93.656,50.028h4.6c2.363,0,3.17-1.558,3.17-2.914c0-0.971-0.439-2.949-3.061-2.949h-4.709V50.028z"/>
			<path style="fill:#AB254D;" d="M103.68,43.469h0.807v12.387h7.42v0.696h-8.227V43.469z"/>
			<path style="fill:#AB254D;" d="M113.648,43.469v7.842c0,1.577,0.328,4.856,4.104,4.856c3.207,0,4.289-1.888,4.289-4.856v-7.842
				h0.805v7.842c0,3.115-1.172,5.553-5.094,5.553c-4.654,0-4.91-3.811-4.91-5.553v-7.842H113.648z"/>
			<path style="fill:#AB254D;" d="M133.695,47.206c-0.092-2.235-1.779-3.354-4.197-3.354c-1.484,0-3.592,0.624-3.592,2.786
				c0,2.106,2.236,2.455,4.453,2.913c2.236,0.459,4.471,1.026,4.471,3.628c0,2.713-2.602,3.684-4.598,3.684
				c-3.063,0-5.555-1.265-5.516-4.636h0.805c-0.164,2.858,2.127,3.939,4.711,3.939c1.574,0,3.793-0.715,3.793-2.987
				c0-2.217-2.238-2.602-4.473-3.06c-2.217-0.458-4.453-0.989-4.453-3.481c0-2.511,2.328-3.481,4.398-3.481
				c2.73,0,4.875,1.173,5.002,4.049H133.695z"/>
		</g>
	</g>
	<polygon style="fill:#AB254D;" points="63.738,43.704 40.633,43.704 40.633,20.554 36.061,20.554 36.061,43.704 12.955,43.704 
		12.955,48.277 36.061,48.277 36.061,71.339 40.633,71.339 40.633,48.277 63.738,48.277 	"/>
</g>
</svg>
